<svg width="40" height="40" viewBox="0 0 40 40" fill="none" xmlns="http://www.w3.org/2000/svg">
<g clip-path="url(#clip0_203_17)">
<path d="M40 19.9999C40 31.0456 31.0459 40 20.0002 40C8.95449 40 0.000244141 31.0456 0.000244141 19.9999C0.000244141 8.95425 8.95449 0 20.0002 0C31.0458 0 40 8.95425 40 19.9999" fill="#BEBEBE"/>
<path d="M35.7538 20C35.7538 28.7 28.7007 35.7537 20.0002 35.7537C11.2999 35.7537 4.24631 28.7 4.24631 20C4.24631 11.2993 11.2999 4.24609 20.0002 4.24609C28.7008 4.24609 35.7538 11.2992 35.7538 20Z" fill="#BEBEBE"/>
<path d="M18.8313 25.3428L20.1304 20.4512L23.2059 19.3276L23.9709 16.4529L23.9448 16.3816L20.9173 17.4876L23.0986 9.27417H16.9124L14.0598 19.9929L11.6781 20.863L10.8911 23.8266L13.271 22.9573L11.5898 29.2743H28.0537L29.1091 25.3428H18.8313Z" fill="white"/>
</g>
<defs>
<clipPath id="clip0_203_17">
<rect width="40" height="40" fill="white"/>
</clipPath>
</defs>
</svg>
