<svg width="40" height="40" viewBox="0 0 40 40" fill="none" xmlns="http://www.w3.org/2000/svg">
<g clip-path="url(#clip0_204_43)">
<path fill-rule="evenodd" clip-rule="evenodd" d="M2 7H39V32H2V7Z" fill="white"/>
<path d="M38.3714 32H2V7H39V32H38.3714Z" fill="#1D5B99"/>
<path fill-rule="evenodd" clip-rule="evenodd" d="M38.3714 31.3691H2.62864V7.6311H38.3714V31.3691V31.3691Z" fill="white"/>
<path fill-rule="evenodd" clip-rule="evenodd" d="M15.5469 23.3552L17.8682 15.6728H19.9394L17.6179 23.3552H15.5469V23.3552ZM14.621 15.6749L12.7578 18.9317C12.2837 19.7848 12.0062 20.2157 11.873 20.7543H11.8445C11.8776 20.0714 11.7826 19.2322 11.7738 18.758L11.5679 15.6749H8.08155L8.04597 15.8816C8.94156 15.8816 9.47272 16.3332 9.61883 17.2571L10.2984 23.3552H12.4441L16.7829 15.6749H14.621ZM30.7277 23.3552L30.6706 22.2128L28.0847 22.2107L27.5555 23.3552H25.307L29.3843 15.6874H32.1441L32.8345 23.3552H30.7277V23.3552ZM30.4904 18.8235C30.4671 18.2557 30.4481 17.4853 30.4862 17.0187H30.4557C30.3298 17.4001 29.7883 18.5454 29.5502 19.1086L28.7797 20.7924H30.5955L30.4904 18.8235ZM22.1137 23.5735C20.6516 23.5735 19.681 23.108 18.9884 22.6927L19.9749 21.1806C20.5971 21.5297 21.0853 21.9326 22.2091 21.9326C22.5701 21.9326 22.9183 21.8386 23.1162 21.4948C23.404 20.9955 23.0497 20.7262 22.2409 20.2666L21.8413 20.0059C20.6419 19.1834 20.1229 18.402 20.6876 17.0381C21.0491 16.1658 22.0017 15.5044 23.5741 15.5044C24.6579 15.5044 25.6746 15.9752 26.2666 16.435L25.1325 17.7701C24.5544 17.301 24.0754 17.0637 23.5272 17.0637C23.0901 17.0637 22.7579 17.233 22.6432 17.4612C22.4274 17.8902 22.7131 18.1826 23.3434 18.5752L23.8184 18.8787C25.2748 19.8007 25.6213 20.7672 25.2567 21.6706C24.6285 23.2265 23.3994 23.5735 22.1137 23.5735V23.5735ZM33.4511 16.714H33.3614V16.1658H33.5686C33.7006 16.1658 33.7675 16.2121 33.7675 16.3235C33.7675 16.4228 33.7071 16.464 33.6252 16.4731L33.7783 16.714H33.6768L33.5357 16.4798H33.4511V16.714V16.714ZM33.5513 16.4027C33.6187 16.4027 33.678 16.3962 33.678 16.3167C33.678 16.2506 33.6134 16.2425 33.5597 16.2425H33.4511V16.4027H33.5513ZM33.5488 16.9259C33.265 16.9259 33.0631 16.7127 33.0631 16.4306C33.0631 16.1328 33.2871 15.9355 33.5488 15.9355C33.8071 15.9355 34.0315 16.1328 34.0315 16.4306C34.0315 16.7285 33.8071 16.9259 33.5488 16.9259ZM33.5488 16.0215C33.3349 16.0215 33.1688 16.1897 33.1688 16.4306C33.1688 16.6556 33.3138 16.8397 33.5488 16.8397C33.7597 16.8397 33.9258 16.6728 33.9258 16.4306C33.9258 16.1897 33.7597 16.0215 33.5488 16.0215Z" fill="#1D5B99"/>
<path fill-rule="evenodd" clip-rule="evenodd" d="M37.4914 25.741H3.57159V30.2963H37.4914V25.741V25.741Z" fill="#E7A83A"/>
<path fill-rule="evenodd" clip-rule="evenodd" d="M37.4284 8.7666H3.50887V13.3222H37.4284V8.7666ZM36.6532 29.9722H36.5636V29.424H36.7707C36.9027 29.424 36.9697 29.4703 36.9697 29.5817C36.9697 29.6808 36.9092 29.722 36.8274 29.7311L36.9804 29.9722H36.8789L36.7379 29.7379H36.6532V29.9722V29.9722ZM36.7537 29.6609C36.821 29.6609 36.8804 29.6544 36.8804 29.5747C36.8804 29.5088 36.8158 29.5008 36.7621 29.5008H36.6535V29.6609H36.7537V29.6609ZM36.7511 30.1839C36.4673 30.1839 36.2654 29.9709 36.2654 29.6886C36.2654 29.3911 36.4899 29.1937 36.7511 29.1937C37.0099 29.1937 37.2339 29.3911 37.2339 29.6886C37.2339 29.9866 37.0099 30.1839 36.7511 30.1839ZM36.7511 29.2795C36.5372 29.2795 36.3711 29.4479 36.3711 29.6886C36.3711 29.9139 36.5162 30.0977 36.7511 30.0977C36.9621 30.0977 37.1282 29.931 37.1282 29.6886C37.1282 29.4479 36.9621 29.2795 36.7511 29.2795Z" fill="#1D5B99"/>
</g>
<defs>
<clipPath id="clip0_204_43">
<rect width="40" height="40" fill="white"/>
</clipPath>
</defs>
</svg>
