<svg width="40" height="40" viewBox="0 0 40 40" fill="none" xmlns="http://www.w3.org/2000/svg">
<g clip-path="url(#clip0_203_2)">
<path d="M39.4021 24.8368C36.7299 35.5568 25.8688 42.0733 15.1641 39.401C4.44381 36.7288 -2.07275 25.8682 0.599594 15.1637C3.27178 4.44366 14.1171 -2.0729 24.8374 0.599443C35.5421 3.25601 42.0744 14.1166 39.4021 24.8368Z" fill="url(#paint0_linear_203_2)"/>
<path d="M29.5226 17.5078C29.9133 14.8516 27.8976 13.4141 25.1164 12.4609L26.0226 8.85156L23.8351 8.30469L22.9601 11.8203C22.382 11.6797 21.7883 11.5391 21.1945 11.4141L22.0695 7.88281L19.882 7.33594L18.9914 10.9297C18.507 10.8203 18.0383 10.7109 17.5851 10.6016V10.5859L14.5539 9.83594L13.9758 12.1797C13.9758 12.1797 15.6008 12.5547 15.5695 12.5703C16.4601 12.7891 16.6164 13.3828 16.5851 13.8516L15.5539 17.9609C15.6164 17.9766 15.6945 17.9922 15.7883 18.0391C15.7101 18.0234 15.632 18.0078 15.5539 17.9766L14.1164 23.7266C14.007 23.9922 13.7258 24.3984 13.1164 24.2422C13.132 24.2734 11.5226 23.8516 11.5226 23.8516L10.4289 26.3672L13.2883 27.0859C13.8195 27.2266 14.3351 27.3516 14.8508 27.4922L13.9445 31.1328L16.132 31.6797L17.0383 28.0703C17.632 28.2266 18.2258 28.3828 18.7883 28.5234L17.8976 32.1172L20.0851 32.6641L20.9914 29.0234C24.7414 29.7266 27.5539 29.4453 28.7258 26.0547C29.6789 23.3359 28.6789 21.7578 26.7101 20.7266C28.1633 20.3984 29.2414 19.4453 29.5226 17.5078V17.5078ZM24.507 24.5391C23.8351 27.2578 19.2414 25.7891 17.757 25.4141L18.9601 20.5859C20.4445 20.9609 25.2258 21.6953 24.507 24.5391ZM25.1945 17.4609C24.5695 19.9453 20.757 18.6797 19.5226 18.3672L20.6164 13.9922C21.8508 14.3047 25.8351 14.8828 25.1945 17.4609Z" fill="white"/>
</g>
<defs>
<linearGradient id="paint0_linear_203_2" x1="19.9896" y1="-0.00935585" x2="19.9896" y2="39.9962" gradientUnits="userSpaceOnUse">
<stop stop-color="#F9AA4B"/>
<stop offset="1" stop-color="#F7931A"/>
</linearGradient>
<clipPath id="clip0_203_2">
<rect width="40" height="40" fill="white"/>
</clipPath>
</defs>
</svg>
