<svg width="40" height="40" viewBox="0 0 40 40" fill="none" xmlns="http://www.w3.org/2000/svg">
<path fill-rule="evenodd" clip-rule="evenodd" d="M20.0087 27.6083C21.8073 29.2655 24.2225 30.2707 26.8497 30.2707C32.4919 30.2707 37.0585 25.6688 37.0585 20.0088C37.0585 14.3316 32.4919 9.72949 26.8497 9.72949C24.2225 9.72949 21.8073 10.7345 20.0087 12.3919C17.9458 14.2785 16.6409 16.9938 16.6409 20.0088C16.6411 23.0238 17.9458 25.7394 20.0087 27.6083V27.6083Z" fill="#E9B040"/>
<path fill-rule="evenodd" clip-rule="evenodd" d="M35.7013 25.7213C35.7013 25.545 35.8424 25.4041 36.0186 25.4041C36.2124 25.4041 36.3533 25.5452 36.3533 25.7213C36.3533 25.9156 36.2122 26.0565 36.0186 26.0565C35.8424 26.0565 35.7013 25.9156 35.7013 25.7213ZM36.0186 25.9861C36.1597 25.9861 36.2828 25.8625 36.2828 25.7216C36.2828 25.5806 36.1595 25.4748 36.0186 25.4748C35.8949 25.4748 35.7719 25.5806 35.7719 25.7216C35.7719 25.8625 35.8951 25.9861 36.0186 25.9861ZM35.9833 25.8803H35.9128V25.5804H36.036C36.0539 25.5804 36.0892 25.5804 36.1066 25.5983C36.1419 25.6157 36.1419 25.6336 36.1419 25.6688C36.1419 25.7041 36.1244 25.7394 36.0892 25.7394L36.1597 25.8805H36.0713L36.036 25.7568H35.9833V25.8803V25.7039H36.0539C36.0713 25.7039 36.0713 25.6861 36.0713 25.6686C36.0713 25.6508 36.0713 25.6508 36.0539 25.6334H35.9833V25.8803V25.8803Z" fill="#E9B040"/>
<path fill-rule="evenodd" clip-rule="evenodd" d="M23.3059 18.9158C23.2707 18.5456 23.2001 18.193 23.1296 17.8226H16.8879C16.9584 17.4524 17.0643 17.0998 17.1699 16.7471H22.8299C22.707 16.3759 22.5658 16.011 22.4068 15.6539H17.6109C17.7873 15.2804 17.9815 14.9156 18.1927 14.5607H21.8075C21.5749 14.1841 21.3157 13.8247 21.0318 13.4851H18.9686C19.2878 13.0954 19.6355 12.73 20.0089 12.3919C18.193 10.7521 15.7949 9.72949 13.1501 9.72949C7.52558 9.72949 2.94134 14.3316 2.94134 20.0088C2.94134 25.6688 7.52558 30.2707 13.1501 30.2707C15.7949 30.2707 18.1927 29.2655 20.0089 27.6083C20.3766 27.2761 20.7186 26.9165 21.0318 26.5325H18.9686C18.6864 26.1799 18.4397 25.8274 18.1927 25.4393H21.8075C22.0348 25.0906 22.2352 24.7252 22.407 24.3461H17.6109C17.4521 23.9935 17.2936 23.641 17.1699 23.2703H22.8299C22.9532 22.9178 23.0416 22.5478 23.1293 22.1771C23.1999 21.8246 23.2705 21.4546 23.3057 21.0839C23.3415 20.7265 23.3592 20.3674 23.3589 20.0082C23.3589 19.6386 23.3412 19.2684 23.3059 18.9158V18.9158Z" fill="#CC2131"/>
<path fill-rule="evenodd" clip-rule="evenodd" d="M35.7013 22.3892C35.7013 22.1953 35.8424 22.0544 36.0186 22.0544C36.2124 22.0544 36.3533 22.1956 36.3533 22.3892C36.3533 22.5656 36.2122 22.7243 36.0186 22.7243C35.8424 22.7243 35.7013 22.5653 35.7013 22.3892ZM36.0186 22.6359C36.1597 22.6359 36.2828 22.5301 36.2828 22.3892C36.2828 22.2483 36.1595 22.1424 36.0186 22.1424C35.8949 22.1424 35.7719 22.2483 35.7719 22.3892C35.7719 22.5301 35.8951 22.6359 36.0186 22.6359ZM35.9833 22.5301H35.9128V22.2481H36.1066C36.1419 22.2659 36.1419 22.3012 36.1419 22.3365C36.1419 22.3539 36.1244 22.3892 36.0892 22.407L36.1597 22.5303H36.0713L36.036 22.4244H35.9833V22.5301V22.3715H36.0186C36.036 22.3715 36.0539 22.3715 36.0539 22.3537C36.0713 22.3537 36.0713 22.3363 36.0713 22.3184C36.0713 22.3184 36.0713 22.301 36.0539 22.301C36.0539 22.2831 36.036 22.301 36.0186 22.301H35.9833V22.5301V22.5301Z" fill="white"/>
<path fill-rule="evenodd" clip-rule="evenodd" d="M16.5353 22.9711C16.2004 23.0591 15.9534 23.1122 15.7067 23.1122C15.1777 23.1122 14.8602 22.7771 14.8602 22.1776C14.8602 22.0543 14.8779 21.9309 14.8955 21.7897L14.9661 21.3845L15.019 21.0493L15.495 18.1578H16.5529L16.4295 18.7926H17.0995L16.9408 19.8505H16.2707L15.9887 21.5783C15.9711 21.6667 15.9711 21.7194 15.9711 21.7547C15.9711 21.984 16.0769 22.072 16.3413 22.072C16.4648 22.072 16.5704 22.0545 16.6762 22.0367L16.5353 22.9711V22.9711ZM19.956 22.9359C19.5682 23.0417 19.2156 23.0944 18.8275 23.0944C17.6285 23.0944 16.9408 22.4596 16.9408 21.2081C16.9408 19.7445 17.752 18.6865 18.8802 18.6865C19.7794 18.6865 20.3613 19.2861 20.3613 20.2203C20.3613 20.538 20.326 20.8377 20.238 21.2608H18.034C18.0164 21.3313 18.0164 21.3666 18.0164 21.4019C18.0164 21.8956 18.3513 22.1423 18.9861 22.1423C19.3916 22.1423 19.7441 22.0543 20.1322 21.8781L19.956 22.9359ZM19.3036 20.4145V20.2029C19.3036 19.8503 19.1095 19.6563 18.7746 19.6563C18.4218 19.6563 18.1751 19.9206 18.0693 20.4143H19.3036V20.4145V20.4145ZM8.07197 23.0238H6.97877L7.61356 19.0217L6.18544 23.0238H5.42738L5.33919 19.0393L4.66912 23.0238H3.59356L4.45745 17.8227H6.06196L6.09724 21.0319L7.1728 17.8227H8.93606L8.07197 23.0238V23.0238ZM10.7346 21.1375C10.6288 21.1197 10.5935 21.1197 10.5229 21.1197C9.88815 21.1197 9.57086 21.3664 9.57086 21.7545C9.57086 22.019 9.72961 22.1954 9.97634 22.1954C10.5053 22.1954 10.7168 21.7545 10.7346 21.1375ZM11.6161 23.0238H10.6641L10.6817 22.5833C10.4347 22.918 10.0998 23.0944 9.51794 23.0944C8.98898 23.0944 8.53058 22.6186 8.53058 21.9309C8.53058 21.737 8.56586 21.5609 8.61877 21.3845C8.79495 20.7318 9.44738 20.3265 10.4524 20.3087C10.5759 20.3087 10.7697 20.3087 10.9461 20.3265C10.9811 20.1854 10.9811 20.1323 10.9811 20.0443C10.9811 19.7621 10.752 19.6739 10.2407 19.6739C9.92343 19.6739 9.57065 19.7268 9.32391 19.815L9.16516 19.8503L9.09461 19.8677L9.25336 18.9156C9.76468 18.7569 10.1349 18.6865 10.5406 18.6865C11.4927 18.6865 12.004 19.1273 12.004 19.9383C12.004 20.1499 12.0216 20.3087 11.9511 20.7671L11.7043 22.2834L11.6691 22.548L11.6514 22.7597L11.6338 22.9008L11.6161 23.0238V23.0238ZM25.2809 18.8277C25.5982 18.8277 25.8804 18.9158 26.2682 19.1097L26.4621 17.9812C26.3562 17.9283 26.3209 17.9283 26.18 17.8754L25.7395 17.7519C25.5984 17.7166 25.4222 17.699 25.228 17.699C24.6811 17.699 24.3639 17.7166 24.0291 17.9106C23.8527 18.0341 23.6234 18.1929 23.3765 18.4749L23.2354 18.4396L22.1069 19.2329L22.16 18.7922H20.9961L20.3088 23.0236H21.4198L21.8251 20.7495C21.8251 20.7495 21.9841 20.4318 22.0544 20.3263C22.2661 20.0618 22.4423 20.0618 22.6714 20.0618H22.7598C22.7227 20.3305 22.705 20.6015 22.7066 20.8727C22.7066 22.2479 23.4823 23.112 24.6814 23.112C24.9812 23.112 25.246 23.0768 25.6513 22.9709L25.8455 21.7721C25.493 21.9659 25.1755 22.0541 24.9109 22.0541C24.2586 22.0541 23.8704 21.5604 23.8704 20.7847C23.87 19.6386 24.4521 18.8277 25.2809 18.8277V18.8277ZM34.643 17.8227L34.3964 19.3037C34.1319 18.8982 33.8144 18.7042 33.3912 18.7042C32.8091 18.7042 32.2628 19.0391 31.9276 19.6739V19.6565L31.2225 19.2331L31.293 18.7924H30.1116L29.4416 23.0238H30.5348L30.9052 20.7497C30.9052 20.7497 31.1872 20.432 31.2578 20.3265C31.4341 20.1149 31.6103 20.0794 31.7514 20.062C31.6282 20.4145 31.5576 20.8377 31.5576 21.3139C31.5576 22.3718 32.104 23.077 32.915 23.077C33.3207 23.077 33.638 22.9359 33.9376 22.6007L33.8849 23.0238H34.9254L35.7716 17.8227H34.643V17.8227ZM33.2856 22.019C32.9152 22.019 32.7214 21.737 32.7214 21.1902C32.7214 20.3614 33.0739 19.7621 33.585 19.7621C33.9729 19.7621 34.1671 20.062 34.1671 20.5909C34.1671 21.4372 33.8146 22.019 33.2856 22.019V22.019ZM28.1902 21.1375C28.0844 21.1197 28.0491 21.1197 27.9786 21.1197C27.3434 21.1197 27.0261 21.3664 27.0261 21.7545C27.0261 22.019 27.185 22.1954 27.4318 22.1954C27.9607 22.1954 28.1724 21.7545 28.1902 21.1375ZM29.0718 23.0238H28.1018L28.1371 22.5833C27.8904 22.918 27.555 23.0944 26.9736 23.0944C26.4268 23.0944 25.9509 22.636 25.9509 21.9309C25.9509 20.9261 26.7088 20.3089 27.9078 20.3089C28.0315 20.3089 28.2251 20.3089 28.3841 20.3268C28.4193 20.1856 28.4372 20.1325 28.4372 20.0445C28.4372 19.7623 28.2079 19.6741 27.6789 19.6741C27.3791 19.6741 27.0089 19.727 26.7621 19.8152L26.621 19.8505L26.5505 19.8679L26.709 18.9158C27.2205 18.7571 27.5909 18.6868 27.9962 18.6868C28.9483 18.6868 29.442 19.1275 29.442 19.9385C29.442 20.1502 29.4773 20.3089 29.3893 20.7673L29.16 22.2836L29.1247 22.5482L29.0894 22.7599L29.072 22.901V23.0238H29.0718V23.0238ZM13.9258 19.6915C14.1375 19.6915 14.4371 19.7092 14.7546 19.7621L14.9134 18.7747C14.5959 18.7395 14.1727 18.6865 13.9258 18.6865C12.6917 18.6865 12.2862 19.3566 12.2862 20.1323C12.2862 20.6438 12.5153 21.0138 13.1148 21.2959C13.5556 21.5075 13.6261 21.5426 13.6261 21.7368C13.6261 22.001 13.397 22.16 12.9737 22.16C12.6388 22.16 12.3213 22.1068 11.9687 21.9836L11.8452 22.9531L11.8627 22.9709L12.0743 23.0062C12.1449 23.0236 12.2331 23.0415 12.3566 23.0589C12.6209 23.0768 12.8502 23.0942 12.9913 23.0942C14.2257 23.0942 14.737 22.6184 14.737 21.6837C14.737 21.102 14.4548 20.7495 13.9082 20.5027C13.4321 20.2909 13.3792 20.256 13.3792 20.0618C13.3792 19.8679 13.5909 19.6915 13.9258 19.6915V19.6915Z" fill="#1B3771"/>
<path fill-rule="evenodd" clip-rule="evenodd" d="M26.7619 17.6462L26.5677 18.7747C26.1798 18.5807 25.8976 18.4927 25.5803 18.4927C24.7515 18.4927 24.1698 19.3036 24.1698 20.4498C24.1698 21.2433 24.5577 21.7191 25.2103 21.7191C25.4745 21.7191 25.792 21.6311 26.1446 21.455L25.9507 22.6359C25.545 22.7418 25.2807 22.7949 24.9808 22.7949C23.782 22.7949 23.0414 21.9308 23.0414 20.5382C23.0414 18.6867 24.064 17.3818 25.5274 17.3818C25.7212 17.3818 25.8974 17.3995 26.0385 17.4348L26.4795 17.5406C26.6208 17.5935 26.6561 17.6111 26.7619 17.6462V17.6462ZM23.2001 18.4221H23.0943C22.7243 18.4221 22.5126 18.5985 22.1775 19.1096L22.2833 18.4572H21.2781L20.5908 22.6889H21.7018C22.1071 20.097 22.213 19.6562 22.7419 19.6562H22.8125C22.9183 19.1449 23.0592 18.7745 23.2356 18.4395L23.2001 18.4221V18.4221ZM16.8175 22.6359C16.5179 22.7418 16.2709 22.7771 16.0242 22.7771C15.46 22.7771 15.1425 22.4598 15.1425 21.8428C15.1425 21.737 15.1601 21.5961 15.1777 21.4724L15.2483 21.0493L15.3012 20.7145L15.7772 17.8226H16.8704L16.747 18.4574H17.3112L17.1701 19.4977H16.6059L16.3062 21.2609C16.2886 21.3315 16.2886 21.3846 16.2886 21.4373C16.2886 21.649 16.3944 21.7372 16.6588 21.7372C16.7823 21.7372 16.8879 21.7372 16.9584 21.7019L16.8175 22.6359V22.6359ZM12.5682 19.7973C12.5682 20.3265 12.815 20.6965 13.3968 20.9787C13.8552 21.1904 13.9258 21.2607 13.9258 21.4371C13.9258 21.7017 13.7318 21.825 13.291 21.825C12.9561 21.825 12.6562 21.7723 12.3036 21.6664L12.1449 22.6359L12.1978 22.6538L12.3918 22.6891C12.4622 22.7065 12.5506 22.7243 12.6915 22.7243C12.9382 22.7596 13.1499 22.7596 13.291 22.7596C14.4545 22.7596 15.0013 22.3186 15.0013 21.3491C15.0013 20.767 14.7722 20.4319 14.2257 20.1677C13.7496 19.9561 13.6967 19.9034 13.6967 19.7093C13.6967 19.4802 13.8907 19.3744 14.2433 19.3744C14.455 19.3744 14.7546 19.392 15.0368 19.4273L15.1954 18.4576C14.9134 18.4047 14.4726 18.3694 14.2257 18.3694C12.9913 18.3692 12.5506 19.0216 12.5682 19.7973V19.7973ZM35.2076 22.6891H34.1671L34.2203 22.2834C33.9204 22.6007 33.6029 22.7418 33.1972 22.7418C32.3862 22.7418 31.8573 22.0545 31.8573 20.9966C31.8573 19.5859 32.6861 18.3868 33.6556 18.3868C34.0966 18.3868 34.4139 18.5809 34.7139 18.9687L34.9607 17.4877H36.0539L35.2076 22.6891V22.6891ZM33.5853 21.7017C34.0968 21.7017 34.4493 21.1022 34.4493 20.2734C34.4493 19.7268 34.2551 19.4445 33.8673 19.4445C33.3736 19.4445 33.0036 20.0264 33.0036 20.8552C33.0036 21.4197 33.1974 21.7017 33.5853 21.7017V21.7017ZM20.2027 22.6007C19.8147 22.7243 19.4621 22.7771 19.0566 22.7771C17.8223 22.7771 17.1875 22.1248 17.1875 20.8729C17.1875 19.4271 17.9987 18.3516 19.1095 18.3516C20.0264 18.3516 20.608 18.9511 20.608 19.8855C20.608 20.203 20.5727 20.5029 20.4669 20.9434H18.2809C18.2633 20.9966 18.2633 21.0318 18.2633 21.0671C18.2633 21.5608 18.5984 21.8075 19.233 21.8075C19.6385 21.8075 19.9911 21.737 20.3791 21.543L20.2027 22.6007V22.6007ZM19.5856 20.0793V19.8679C19.5856 19.5153 19.3916 19.3213 19.0566 19.3213C18.7041 19.3213 18.4571 19.5859 18.3513 20.0793H19.5856ZM8.35419 22.6891H7.26099L7.89578 18.6865L6.46766 22.6891H5.70939L5.6212 18.7218L4.95134 22.6891H3.9287L4.79259 17.4877H6.37946L6.43238 20.7143L7.49009 17.4877H9.21808L8.35419 22.6891V22.6891ZM11.0872 20.8023C10.9813 20.8023 10.9284 20.7849 10.8402 20.7849C10.2231 20.7849 9.90579 21.014 9.90579 21.4371C9.90579 21.7017 10.0469 21.8602 10.2936 21.8602C10.752 21.8602 11.0695 21.4371 11.0872 20.8023ZM11.8981 22.6891H10.9811L10.9988 22.2481C10.7166 22.6007 10.3463 22.7596 9.83502 22.7596C9.23551 22.7596 8.83002 22.3012 8.83002 21.6135C8.83002 20.5734 9.53516 19.9739 10.7695 19.9739C10.8929 19.9739 11.0517 19.9916 11.2279 20.009C11.2631 19.8681 11.2631 19.8152 11.2631 19.7446C11.2631 19.4626 11.0691 19.3568 10.5578 19.3568C10.2405 19.3568 9.88773 19.392 9.64099 19.4626L9.48225 19.5155L9.37641 19.5332L9.53516 18.5811C10.0818 18.4223 10.452 18.3694 10.8577 18.3694C11.8097 18.3694 12.3211 18.7925 12.3211 19.6035C12.3211 19.8152 12.3034 19.9739 12.2329 20.45L11.9859 21.9489L11.9507 22.213L11.933 22.4247L11.9154 22.5836L11.8981 22.6891V22.6891ZM28.5428 20.8023C28.4191 20.8023 28.3664 20.7849 28.2961 20.7849C27.6613 20.7849 27.3436 21.014 27.3436 21.4371C27.3436 21.7017 27.5025 21.8602 27.7493 21.8602C28.1902 21.8602 28.525 21.4371 28.5428 20.8023V20.8023ZM29.3538 22.6891H28.437L28.4544 22.2481C28.1724 22.6007 27.8022 22.7596 27.2909 22.7596C26.6914 22.7596 26.2857 22.3012 26.2857 21.6135C26.2857 20.5734 26.9908 19.9739 28.2251 19.9739C28.3488 19.9739 28.5075 19.9916 28.6661 20.009C28.7014 19.8681 28.7192 19.8152 28.7192 19.7446C28.7192 19.4626 28.525 19.3568 28.0141 19.3568C27.6964 19.3568 27.3264 19.392 27.0794 19.4626L26.9383 19.5155L26.8325 19.5332L26.991 18.5811C27.5378 18.4223 27.9078 18.3694 28.3135 18.3694C29.2656 18.3694 29.7593 18.7925 29.7593 19.6035C29.7593 19.8152 29.7593 19.9739 29.6713 20.45L29.442 21.9489L29.4067 22.213L29.3714 22.4247L29.354 22.5836V22.6891H29.3538V22.6891ZM32.3159 18.4221H32.21C31.84 18.4221 31.6284 18.5985 31.2932 19.1096L31.3991 18.4572H30.3939L29.7238 22.6889H30.817C31.2227 20.097 31.3285 19.6562 31.8575 19.6562H31.928C32.0339 19.1449 32.1748 18.7745 32.3512 18.4395L32.3159 18.4221V18.4221Z" fill="white"/>
</svg>
