<svg width="40" height="40" viewBox="0 0 40 40" fill="none" xmlns="http://www.w3.org/2000/svg">
<g clip-path="url(#clip0_203_13)">
<path d="M20 0C31.0444 0 40 8.95556 40 20C40 31.0444 31.0444 40 20 40C8.95556 40 0 31.05 0 20C0 8.95 8.95556 0 20 0Z" fill="#26A17B"/>
<path d="M22.8161 17.7701V14.7924H29.6217V10.259H11.0939V14.7924H17.8994V17.7701C12.3717 18.0257 8.21056 19.1201 8.21056 20.4313C8.21056 21.7424 12.3717 22.8368 17.8994 23.0924V32.6201H22.8217V23.0924C28.3439 22.8368 32.4939 21.7424 32.4939 20.4313C32.4883 19.1201 28.3383 18.0257 22.8161 17.7701ZM22.8217 22.2868C22.6828 22.2924 21.9717 22.3368 20.3828 22.3368C19.1106 22.3368 18.2217 22.3035 17.905 22.2868V22.2924C13.0217 22.0757 9.37167 21.2257 9.37167 20.209C9.37167 19.1924 13.0161 18.3424 17.905 18.1257V21.4368C18.2272 21.459 19.1383 21.5146 20.405 21.5146C21.9217 21.5146 22.6828 21.4535 22.8272 21.4368V18.1146C27.705 18.3313 31.3439 19.1813 31.3439 20.1979C31.3328 21.2146 27.6939 22.0646 22.8217 22.2868" fill="white"/>
</g>
<defs>
<clipPath id="clip0_203_13">
<rect width="40" height="40" fill="white"/>
</clipPath>
</defs>
</svg>
